<?xml version="1.0" encoding="utf-8"?>
<!-- Generator: Adobe Illustrator 15.1.0, SVG Export Plug-In . SVG Version: 6.00 Build 0)  -->
<!DOCTYPE svg PUBLIC "-//W3C//DTD SVG 1.1//EN" "http://www.w3.org/Graphics/SVG/1.1/DTD/svg11.dtd">
<svg version="1.1" id="Layer_1" xmlns="http://www.w3.org/2000/svg" xmlns:xlink="http://www.w3.org/1999/xlink" x="0px" y="0px"
	 width="672px" height="95.5px" viewBox="0 0 672 95.5" enable-background="new 0 0 672 95.5" xml:space="preserve">
<g>
	<defs>
		<rect id="SVGID_1_" x="-257.5" y="-348" width="1224" height="792"/>
	</defs>
	<clipPath id="SVGID_2_">
		<use xlink:href="#SVGID_1_"  overflow="visible"/>
	</clipPath>
	<path clip-path="url(#SVGID_2_)" fill="#231F20" d="M48.102,93.562c-25.122,0-45.56-20.438-45.56-45.561
		c0-25.123,20.438-45.561,45.56-45.561c20.085,0,37.572,12.886,43.514,32.065c0.082,0.264-0.066,0.544-0.329,0.626
		c-0.265,0.082-0.544-0.066-0.626-0.33C84.85,16.043,67.746,3.44,48.102,3.44c-24.57,0-44.56,19.99-44.56,44.561
		s19.99,44.561,44.56,44.561c19.542,0,37.096-13.071,42.688-31.787c0.08-0.265,0.358-0.416,0.623-0.336
		c0.264,0.079,0.415,0.357,0.335,0.622C86.031,80.196,68.083,93.562,48.102,93.562"/>
	<path clip-path="url(#SVGID_2_)" fill="#231F20" d="M302.922,93.562c-25.122,0-45.56-20.438-45.56-45.561
		c0-25.123,20.438-45.561,45.56-45.561c20.085,0,37.572,12.886,43.514,32.065c0.082,0.264-0.066,0.544-0.329,0.626
		c-0.265,0.082-0.544-0.066-0.626-0.33C339.67,16.043,322.566,3.44,302.922,3.44c-24.57,0-44.56,19.99-44.56,44.561
		s19.99,44.561,44.56,44.561c19.542,0,37.096-13.071,42.688-31.787c0.08-0.265,0.357-0.416,0.623-0.336
		c0.264,0.079,0.415,0.357,0.335,0.622C340.852,80.196,322.903,93.562,302.922,93.562"/>
	<path clip-path="url(#SVGID_2_)" fill="#231F20" d="M116.621,52.138l-8.285-16.472L99.903,52.27l-0.731,1.42l-3.752,7.397
		c-0.018,0.019-0.051,0.047-0.098,0.086c-0.048,0.037-0.085,0.056-0.114,0.056c-0.075,0-0.141-0.026-0.198-0.078
		c-0.056-0.052-0.085-0.114-0.085-0.19c0-0.02,0.052-0.137,0.156-0.354s0.243-0.499,0.418-0.842
		c0.174-0.344,0.372-0.735,0.594-1.174c0.221-0.439,0.45-0.889,0.686-1.352c0.235-0.463,0.471-0.92,0.707-1.372
		c0.235-0.453,0.45-0.865,0.644-1.238c0.193-0.372,0.356-0.691,0.488-0.955s9.436-18.49,9.436-18.49
		c0.019-0.047,0.049-0.109,0.092-0.184c0.042-0.075,0.096-0.113,0.163-0.113c0.094,0,0.171,0.031,0.233,0.092
		c0.061,0.061,0.11,0.13,0.148,0.205c0.086,0.179,0.278,0.562,0.581,1.146c0.301,0.585,0.673,1.319,1.117,2.2
		c0.443,0.882,0.943,1.875,1.5,2.977c0.556,1.104,1.141,2.262,1.754,3.474c0.613,1.212,1.236,2.447,1.867,3.706
		c0.632,1.261,1.245,2.479,1.839,3.658c0.594,1.179,1.153,2.286,1.677,3.324c0.523,1.037,0.98,1.945,1.372,2.724
		c0.391,0.777,0.7,1.393,0.927,1.847c0.226,0.451,0.339,0.683,0.339,0.692c0,0.075-0.026,0.149-0.077,0.219
		c-0.052,0.071-0.121,0.106-0.206,0.106c-0.047-0.019-0.139-0.139-0.276-0.36c-0.137-0.222-0.301-0.507-0.495-0.855
		c-0.193-0.351-0.405-0.746-0.636-1.189c-0.231-0.442-0.465-0.902-0.701-1.379c-0.236-0.477-0.469-0.949-0.7-1.415
		c-0.231-0.467-0.443-0.896-0.637-1.288c-0.193-0.391-0.358-0.729-0.495-1.018L116.621,52.138z"/>
	<path clip-path="url(#SVGID_2_)" fill="#231F20" d="M125.286,60.507V35.326c0-0.067,0.02-0.123,0.063-0.17s0.094-0.081,0.156-0.1
		c0.061-0.018,0.124-0.033,0.191-0.042c0.065-0.009,0.122-0.015,0.169-0.015h5.56c0.642,0,1.307,0.018,1.995,0.051
		c0.688,0.033,1.379,0.096,2.073,0.19c0.693,0.094,1.372,0.225,2.037,0.389c0.665,0.165,1.294,0.38,1.888,0.644
		c1.17,0.529,2.215,1.193,3.134,1.995c0.92,0.802,1.698,1.709,2.334,2.723c0.637,1.014,1.122,2.11,1.457,3.29
		c0.335,1.178,0.502,2.404,0.502,3.678c0,0.934-0.094,1.851-0.282,2.752c-0.189,0.9-0.463,1.766-0.821,2.596
		c-0.359,0.829-0.797,1.614-1.316,2.354c-0.519,0.741-1.108,1.415-1.768,2.024c-0.66,0.606-1.389,1.141-2.186,1.598
		c-0.797,0.457-1.648,0.823-2.553,1.097c-0.462,0.142-0.948,0.255-1.457,0.339c-0.51,0.086-1.024,0.151-1.542,0.198
		c-0.519,0.047-1.038,0.08-1.556,0.1c-0.519,0.019-1.019,0.027-1.5,0.027h-5.999c-0.226,0-0.379-0.029-0.459-0.092
		C125.326,60.892,125.286,60.742,125.286,60.507 M125.836,60.535h6.607c0.801,0,1.608-0.033,2.419-0.099
		c0.811-0.066,1.608-0.198,2.391-0.396c1.386-0.349,2.639-0.912,3.756-1.69c1.117-0.777,2.07-1.702,2.857-2.772
		c0.788-1.071,1.394-2.257,1.819-3.558c0.424-1.303,0.636-2.655,0.636-4.061c0-1.529-0.245-2.967-0.735-4.316
		c-0.491-1.348-1.18-2.551-2.066-3.607c-0.887-1.056-1.953-1.942-3.197-2.659c-1.245-0.718-2.618-1.213-4.117-1.486
		c-0.858-0.16-1.721-0.262-2.589-0.304c-0.868-0.042-1.735-0.064-2.603-0.064h-5.178V60.535z"/>
	<path clip-path="url(#SVGID_2_)" fill="#231F20" d="M151.302,53.165h-2.73c-0.189,0-0.283-0.095-0.283-0.283
		c0-0.094,0.025-0.155,0.077-0.183c0.052-0.029,0.121-0.044,0.206-0.044h2.73v-17.33c0-0.142,0.071-0.231,0.212-0.269
		c0.142-0.037,0.264-0.057,0.368-0.057h16.835c0.075,0,0.141,0.031,0.198,0.092c0.057,0.062,0.085,0.13,0.085,0.206
		c0,0.084-0.028,0.143-0.085,0.176c-0.057,0.033-0.123,0.049-0.198,0.049h-16.864v17.133h11.359c0.076,0,0.141,0.028,0.198,0.084
		c0.057,0.058,0.085,0.124,0.085,0.198c0,0.086-0.028,0.146-0.085,0.178c-0.057,0.033-0.122,0.05-0.198,0.05h-11.359v7.371h16.864
		c0.066,0,0.129,0.018,0.191,0.056c0.061,0.038,0.092,0.095,0.092,0.17c0,0.189-0.095,0.283-0.283,0.283h-16.835
		c-0.226,0-0.38-0.031-0.46-0.092c-0.08-0.062-0.12-0.211-0.12-0.446V53.165z"/>
	<path clip-path="url(#SVGID_2_)" fill="#231F20" d="M174.658,35.877v24.998c0,0.085-0.028,0.154-0.085,0.212
		c-0.056,0.057-0.127,0.086-0.212,0.086c-0.094,0-0.155-0.032-0.184-0.092c-0.028-0.063-0.042-0.13-0.042-0.206V35.212
		c0-0.084,0.012-0.164,0.035-0.239c0.024-0.076,0.087-0.114,0.191-0.114c0.094,0,0.165,0.019,0.212,0.057
		c0.019,0.047,0.045,0.089,0.078,0.127c0.033,0.038,0.064,0.075,0.092,0.113l19.849,24.997V35.184c0-0.066,0.018-0.136,0.056-0.211
		c0.038-0.076,0.094-0.114,0.17-0.114c0.198,0,0.297,0.108,0.297,0.325v25.635c0,0.084-0.014,0.164-0.043,0.24
		c-0.028,0.076-0.094,0.114-0.198,0.114c-0.094,0-0.172-0.034-0.233-0.101c-0.061-0.065-0.116-0.132-0.163-0.197L174.658,35.877z"/>
	<path clip-path="url(#SVGID_2_)" fill="#231F20" d="M221.626,38.395c0,0.047-0.019,0.097-0.057,0.149
		c-0.038,0.051-0.085,0.078-0.141,0.078c-0.047,0-0.097-0.017-0.149-0.05c-0.052-0.032-0.101-0.064-0.149-0.092
		c-0.348-0.255-0.7-0.507-1.053-0.757c-0.354-0.25-0.715-0.488-1.082-0.714c-0.368-0.227-0.743-0.436-1.125-0.63
		c-0.382-0.193-0.776-0.36-1.181-0.503c-0.642-0.216-1.288-0.376-1.939-0.48c-0.651-0.104-1.315-0.156-1.994-0.156
		c-1.17,0-2.297,0.151-3.382,0.453c-1.084,0.302-2.096,0.729-3.034,1.281c-0.939,0.552-1.795,1.214-2.568,1.987
		s-1.434,1.632-1.98,2.575c-0.547,0.943-0.972,1.957-1.273,3.041c-0.303,1.084-0.453,2.212-0.453,3.382
		c0,1.151,0.153,2.262,0.46,3.331c0.306,1.071,0.737,2.077,1.294,3.021c0.556,0.942,1.224,1.803,2.002,2.581
		c0.778,0.777,1.638,1.444,2.582,2.002c0.942,0.557,1.949,0.987,3.02,1.295c1.07,0.306,2.181,0.46,3.332,0.46
		c1.565,0,3.018-0.241,4.357-0.723s2.603-1.226,3.791-2.235c0.038-0.037,0.111-0.096,0.219-0.176c0.109-0.08,0.188-0.12,0.234-0.12
		c0.075,0,0.129,0.023,0.163,0.07c0.033,0.048,0.049,0.104,0.049,0.169c0,0.076-0.016,0.135-0.049,0.178
		c-0.034,0.042-0.074,0.087-0.121,0.134c-0.48,0.518-1.07,0.978-1.768,1.38c-0.698,0.401-1.441,0.737-2.228,1.011
		c-0.788,0.274-1.587,0.482-2.398,0.623c-0.811,0.142-1.561,0.212-2.249,0.212c-1.198,0-2.354-0.16-3.466-0.48
		c-1.113-0.321-2.16-0.771-3.141-1.353c-0.981-0.579-1.877-1.274-2.688-2.086c-0.811-0.811-1.507-1.707-2.087-2.688
		c-0.579-0.981-1.03-2.028-1.351-3.141c-0.32-1.112-0.481-2.268-0.481-3.466c0-1.217,0.158-2.386,0.475-3.509
		c0.315-1.122,0.761-2.174,1.336-3.154c0.575-0.981,1.264-1.873,2.066-2.674c0.801-0.802,1.693-1.491,2.673-2.066
		c0.981-0.575,2.033-1.021,3.155-1.337c1.122-0.316,2.292-0.474,3.509-0.474c1.603,0,3.135,0.272,4.597,0.814
		c1.462,0.542,2.788,1.351,3.976,2.425C221.461,38.107,221.561,38.244,221.626,38.395"/>
	<path clip-path="url(#SVGID_2_)" fill="#231F20" d="M225.771,53.165h-2.73c-0.189,0-0.283-0.095-0.283-0.283
		c0-0.094,0.025-0.155,0.077-0.183c0.052-0.029,0.121-0.044,0.206-0.044h2.73v-17.33c0-0.142,0.071-0.231,0.212-0.269
		c0.142-0.037,0.264-0.057,0.368-0.057h16.835c0.075,0,0.141,0.031,0.198,0.092c0.057,0.062,0.085,0.13,0.085,0.206
		c0,0.084-0.028,0.143-0.085,0.176c-0.057,0.033-0.123,0.049-0.198,0.049h-16.864v17.133h11.359c0.076,0,0.141,0.028,0.198,0.084
		c0.057,0.058,0.085,0.124,0.085,0.198c0,0.086-0.028,0.146-0.085,0.178c-0.057,0.033-0.122,0.05-0.198,0.05h-11.359v7.371h16.864
		c0.066,0,0.129,0.018,0.191,0.056c0.061,0.038,0.092,0.095,0.092,0.17c0,0.189-0.095,0.283-0.283,0.283h-16.835
		c-0.226,0-0.38-0.031-0.46-0.092c-0.08-0.062-0.12-0.211-0.12-0.446V53.165z"/>
	<path clip-path="url(#SVGID_2_)" fill="#231F20" d="M351.361,34.887c0.085,0,0.151,0.028,0.198,0.085
		c0.047,0.056,0.071,0.127,0.071,0.212v17.473h17.359V35.184c0-0.085,0.025-0.156,0.077-0.212c0.052-0.057,0.121-0.085,0.206-0.085
		c0.084,0,0.15,0.028,0.197,0.085c0.047,0.056,0.07,0.127,0.07,0.212v25.691c0,0.085-0.027,0.155-0.084,0.212
		s-0.128,0.086-0.213,0.086c-0.104,0-0.172-0.029-0.205-0.086c-0.032-0.057-0.049-0.127-0.049-0.212v-7.71H351.63v7.71
		c0,0.085-0.028,0.155-0.085,0.212c-0.056,0.057-0.127,0.086-0.212,0.086c-0.095,0-0.16-0.029-0.198-0.086
		c-0.038-0.057-0.056-0.127-0.056-0.212v-7.71h-1.911c-0.085,0-0.155-0.026-0.212-0.078c-0.056-0.051-0.085-0.12-0.085-0.205
		c0-0.104,0.029-0.167,0.085-0.191c0.057-0.022,0.127-0.034,0.212-0.034h1.911V35.184c0-0.075,0.027-0.144,0.084-0.205
		S351.286,34.887,351.361,34.887"/>
	<path clip-path="url(#SVGID_2_)" fill="#231F20" d="M373.969,47.959c0-1.226,0.155-2.402,0.467-3.53
		c0.312-1.127,0.754-2.18,1.329-3.162c0.575-0.981,1.265-1.872,2.066-2.674c0.801-0.801,1.689-1.488,2.667-2.058
		c0.976-0.571,2.029-1.012,3.161-1.323s2.306-0.466,3.522-0.466c1.235,0,2.419,0.155,3.551,0.466s2.186,0.75,3.161,1.316
		c0.978,0.565,1.866,1.25,2.667,2.051c0.803,0.802,1.486,1.693,2.053,2.674c0.564,0.981,1.004,2.037,1.315,3.169
		c0.311,1.131,0.466,2.311,0.466,3.537c0,1.217-0.157,2.388-0.474,3.515c-0.316,1.128-0.759,2.18-1.33,3.155
		c-0.571,0.977-1.259,1.868-2.065,2.674c-0.807,0.807-1.697,1.494-2.674,2.065c-0.976,0.57-2.027,1.014-3.153,1.33
		c-1.128,0.315-2.3,0.475-3.517,0.475c-1.208,0-2.37-0.159-3.488-0.475c-1.116-0.316-2.166-0.765-3.146-1.344
		c-0.981-0.58-1.875-1.273-2.681-2.08c-0.807-0.807-1.499-1.699-2.08-2.681c-0.58-0.98-1.028-2.029-1.343-3.147
		C374.126,50.329,373.969,49.166,373.969,47.959 M374.492,47.959c0,1.16,0.152,2.278,0.46,3.354c0.306,1.074,0.734,2.082,1.287,3.02
		c0.552,0.938,1.217,1.795,1.994,2.568c0.778,0.772,1.637,1.438,2.575,1.994s1.945,0.988,3.021,1.295
		c1.075,0.306,2.192,0.46,3.353,0.46c1.169,0,2.294-0.151,3.374-0.453c1.079-0.302,2.089-0.729,3.027-1.28s1.792-1.215,2.561-1.988
		c0.769-0.772,1.427-1.629,1.974-2.567s0.972-1.948,1.273-3.027c0.303-1.08,0.453-2.205,0.453-3.374
		c0-1.179-0.148-2.314-0.446-3.402c-0.297-1.09-0.714-2.106-1.252-3.05c-0.538-0.943-1.19-1.798-1.96-2.568
		c-0.768-0.767-1.619-1.427-2.553-1.979c-0.934-0.552-1.946-0.977-3.034-1.274c-1.09-0.297-2.229-0.446-3.417-0.446
		c-1.17,0-2.295,0.154-3.374,0.46c-1.08,0.307-2.089,0.736-3.027,1.288c-0.938,0.551-1.794,1.214-2.567,1.988
		c-0.774,0.773-1.436,1.631-1.988,2.574c-0.551,0.944-0.979,1.957-1.279,3.042C374.643,45.676,374.492,46.798,374.492,47.959"/>
	<path clip-path="url(#SVGID_2_)" fill="#231F20" d="M425.28,38.395c0,0.047-0.02,0.097-0.057,0.149
		c-0.038,0.051-0.085,0.078-0.142,0.078c-0.047,0-0.097-0.017-0.148-0.05c-0.053-0.032-0.102-0.064-0.148-0.092
		c-0.349-0.255-0.701-0.507-1.054-0.757c-0.354-0.25-0.715-0.488-1.082-0.714c-0.368-0.227-0.743-0.436-1.125-0.63
		c-0.382-0.193-0.776-0.36-1.182-0.503c-0.642-0.216-1.288-0.376-1.938-0.48c-0.651-0.104-1.315-0.156-1.994-0.156
		c-1.17,0-2.297,0.151-3.382,0.453c-1.084,0.302-2.096,0.729-3.034,1.281c-0.939,0.552-1.795,1.214-2.568,1.987
		c-0.772,0.773-1.434,1.632-1.979,2.575c-0.547,0.943-0.972,1.957-1.273,3.041c-0.303,1.084-0.453,2.212-0.453,3.382
		c0,1.151,0.153,2.262,0.46,3.331c0.307,1.071,0.737,2.077,1.295,3.021c0.556,0.942,1.224,1.803,2.002,2.581
		c0.777,0.777,1.638,1.444,2.582,2.002c0.942,0.557,1.948,0.987,3.02,1.295c1.07,0.305,2.181,0.46,3.332,0.46
		c1.565,0,3.018-0.241,4.357-0.723c1.339-0.481,2.603-1.226,3.791-2.235c0.037-0.037,0.11-0.096,0.219-0.176s0.187-0.12,0.233-0.12
		c0.075,0,0.13,0.023,0.163,0.07c0.033,0.048,0.05,0.104,0.05,0.169c0,0.076-0.017,0.135-0.05,0.178
		c-0.033,0.042-0.073,0.087-0.121,0.134c-0.479,0.518-1.069,0.978-1.768,1.38c-0.698,0.401-1.441,0.737-2.228,1.011
		c-0.788,0.274-1.588,0.482-2.398,0.623c-0.811,0.142-1.561,0.212-2.249,0.212c-1.198,0-2.354-0.16-3.466-0.48
		c-1.113-0.321-2.16-0.771-3.142-1.353c-0.98-0.579-1.877-1.274-2.688-2.086c-0.811-0.811-1.507-1.707-2.087-2.688
		c-0.579-0.981-1.03-2.028-1.352-3.141c-0.319-1.112-0.48-2.268-0.48-3.466c0-1.217,0.158-2.386,0.475-3.509
		c0.315-1.122,0.762-2.174,1.336-3.154c0.575-0.981,1.265-1.873,2.066-2.674c0.801-0.802,1.693-1.491,2.673-2.066
		c0.981-0.575,2.033-1.021,3.155-1.337s2.292-0.474,3.509-0.474c1.604,0,3.135,0.272,4.597,0.814s2.788,1.351,3.977,2.425
		C425.115,38.107,425.214,38.244,425.28,38.395"/>
	<path clip-path="url(#SVGID_2_)" fill="#231F20" d="M427.827,47.959c0-1.226,0.155-2.402,0.467-3.53
		c0.311-1.127,0.754-2.18,1.329-3.162c0.575-0.981,1.264-1.872,2.066-2.674c0.801-0.801,1.689-1.488,2.666-2.058
		c0.977-0.571,2.03-1.012,3.161-1.323c1.132-0.311,2.307-0.466,3.523-0.466c1.235,0,2.419,0.155,3.551,0.466
		c1.131,0.311,2.186,0.75,3.161,1.316c0.977,0.565,1.866,1.25,2.667,2.051c0.802,0.802,1.486,1.693,2.052,2.674
		s1.004,2.037,1.316,3.169c0.31,1.131,0.466,2.311,0.466,3.537c0,1.217-0.158,2.388-0.474,3.515c-0.316,1.128-0.76,2.18-1.33,3.155
		c-0.571,0.977-1.26,1.868-2.065,2.674c-0.807,0.807-1.698,1.494-2.674,2.065c-0.976,0.57-2.028,1.014-3.154,1.33
		c-1.128,0.315-2.299,0.475-3.516,0.475c-1.208,0-2.37-0.159-3.488-0.475c-1.117-0.316-2.167-0.765-3.146-1.344
		c-0.981-0.58-1.875-1.273-2.682-2.08c-0.806-0.807-1.499-1.699-2.08-2.681c-0.579-0.98-1.027-2.029-1.343-3.147
		C427.984,50.329,427.827,49.166,427.827,47.959 M428.35,47.959c0,1.16,0.153,2.278,0.46,3.354c0.307,1.074,0.735,2.082,1.287,3.02
		s1.218,1.795,1.995,2.568c0.778,0.772,1.636,1.438,2.575,1.994c0.938,0.557,1.945,0.988,3.02,1.295
		c1.075,0.306,2.193,0.46,3.354,0.46c1.169,0,2.294-0.151,3.374-0.453c1.079-0.302,2.089-0.729,3.027-1.28s1.792-1.215,2.561-1.988
		c0.768-0.772,1.426-1.629,1.973-2.567s0.973-1.948,1.274-3.027c0.302-1.08,0.453-2.205,0.453-3.374
		c0-1.179-0.149-2.314-0.446-3.402c-0.297-1.09-0.714-2.106-1.252-3.05c-0.538-0.943-1.191-1.798-1.96-2.568
		c-0.768-0.767-1.619-1.427-2.553-1.979c-0.935-0.552-1.946-0.977-3.034-1.274c-1.09-0.297-2.229-0.446-3.417-0.446
		c-1.17,0-2.295,0.154-3.374,0.46c-1.08,0.307-2.089,0.736-3.028,1.288c-0.938,0.551-1.794,1.214-2.566,1.988
		c-0.774,0.773-1.437,1.631-1.988,2.574c-0.551,0.944-0.979,1.957-1.28,3.042C428.501,45.676,428.35,46.798,428.35,47.959"/>
	<path clip-path="url(#SVGID_2_)" fill="#231F20" d="M459.204,60.535h16.864c0.064,0,0.129,0.02,0.189,0.057
		c0.062,0.037,0.092,0.095,0.092,0.17c0,0.188-0.094,0.282-0.281,0.282h-16.835c-0.228,0-0.38-0.029-0.46-0.092
		c-0.08-0.061-0.12-0.21-0.12-0.445V35.183c0-0.074,0.027-0.143,0.085-0.204c0.056-0.062,0.122-0.092,0.197-0.092
		c0.086,0,0.15,0.028,0.197,0.085c0.048,0.056,0.071,0.127,0.071,0.211V60.535z"/>
	<path clip-path="url(#SVGID_2_)" fill="#231F20" d="M481.713,53.165l-4.019,7.922c-0.019,0.019-0.052,0.047-0.099,0.086
		c-0.047,0.037-0.085,0.056-0.113,0.056c-0.076,0-0.142-0.026-0.198-0.078s-0.085-0.114-0.085-0.19c0-0.02,0.053-0.136,0.155-0.354
		c0.104-0.217,0.243-0.499,0.418-0.842c0.174-0.344,0.372-0.736,0.594-1.174c0.222-0.439,0.45-0.889,0.687-1.352
		s11.275-22.056,11.275-22.056c0.019-0.047,0.05-0.109,0.093-0.184c0.042-0.075,0.096-0.113,0.162-0.113
		c0.094,0,0.172,0.031,0.232,0.092c0.062,0.061,0.111,0.13,0.149,0.205c0.085,0.179,0.277,0.562,0.58,1.146
		c0.302,0.585,0.674,1.319,1.117,2.2c0.443,0.882,0.942,1.875,1.499,2.978s1.142,2.261,1.755,3.473
		c0.613,1.212,1.235,2.447,1.867,3.706c0.633,1.26,1.245,2.479,1.84,3.658c0.594,1.179,1.152,2.286,1.676,3.324
		c0.523,1.037,0.98,1.944,1.372,2.724c0.392,0.777,0.7,1.393,0.927,1.846c0.227,0.452,0.34,0.684,0.34,0.693
		c0,0.075-0.026,0.149-0.078,0.219c-0.052,0.071-0.12,0.106-0.205,0.106c-0.047-0.019-0.139-0.139-0.275-0.36
		c-0.138-0.222-0.303-0.507-0.495-0.855c-0.193-0.351-0.406-0.746-0.638-1.189c-0.23-0.442-0.465-0.902-0.699-1.379
		c-0.236-0.477-0.47-0.949-0.7-1.415c-0.231-0.466-0.444-0.896-0.637-1.288c-0.193-0.391-0.359-0.729-0.495-1.018
		c-0.138-0.287-0.233-0.483-0.29-0.587l-0.27-0.51l-8.545-16.99L481.713,53.165z"/>
	<path clip-path="url(#SVGID_2_)" fill="#231F20" d="M511.662,61.173c-0.104,0-0.171-0.028-0.198-0.085
		c-0.029-0.058-0.042-0.127-0.042-0.213V35.522h-8.688c-0.085,0-0.155-0.025-0.212-0.077c-0.056-0.052-0.085-0.12-0.085-0.205
		c0-0.104,0.029-0.17,0.085-0.198c0.057-0.029,0.127-0.043,0.212-0.043h17.938c0.188,0,0.283,0.1,0.283,0.298
		c0,0.075-0.03,0.131-0.092,0.17c-0.062,0.037-0.125,0.055-0.191,0.055h-8.729v25.353c0,0.086-0.025,0.155-0.078,0.213
		C511.814,61.145,511.747,61.173,511.662,61.173"/>
	<path clip-path="url(#SVGID_2_)" fill="#231F20" d="M524.748,53.165h-2.73c-0.189,0-0.283-0.095-0.283-0.283
		c0-0.094,0.025-0.155,0.077-0.183c0.052-0.029,0.121-0.044,0.206-0.044h2.73v-17.33c0-0.142,0.07-0.231,0.212-0.269
		c0.142-0.037,0.264-0.057,0.367-0.057h16.835c0.075,0,0.142,0.031,0.198,0.092c0.058,0.062,0.085,0.13,0.085,0.206
		c0,0.084-0.027,0.143-0.085,0.176c-0.057,0.033-0.123,0.049-0.198,0.049h-16.863v17.133h11.358c0.076,0,0.142,0.028,0.198,0.084
		c0.057,0.058,0.085,0.124,0.085,0.198c0,0.086-0.028,0.146-0.085,0.178c-0.057,0.033-0.122,0.05-0.198,0.05h-11.358v7.371h16.863
		c0.066,0,0.13,0.018,0.191,0.056s0.092,0.095,0.092,0.17c0,0.189-0.095,0.283-0.283,0.283h-16.835c-0.226,0-0.38-0.031-0.46-0.092
		c-0.08-0.062-0.119-0.211-0.119-0.446V53.165z"/>
	<path clip-path="url(#SVGID_2_)" fill="#231F20" d="M546.252,56.589c0-0.076,0.027-0.141,0.085-0.198
		c0.057-0.057,0.122-0.086,0.197-0.086c0.076,0.029,0.134,0.065,0.17,0.107c0.038,0.042,0.08,0.092,0.127,0.148
		c0.566,0.735,1.243,1.367,2.03,1.896c0.788,0.528,1.632,0.957,2.533,1.288c0.9,0.329,1.827,0.571,2.779,0.728
		c0.953,0.155,1.877,0.233,2.772,0.233c0.679,0,1.385-0.051,2.115-0.155c0.731-0.104,1.446-0.266,2.143-0.488
		c0.698-0.222,1.361-0.507,1.988-0.855c0.628-0.35,1.177-0.771,1.648-1.267c0.472-0.496,0.847-1.067,1.125-1.719
		c0.277-0.649,0.417-1.386,0.417-2.206c0-1.048-0.225-1.923-0.672-2.625c-0.447-0.703-1.027-1.28-1.74-1.733
		c-0.712-0.452-1.506-0.804-2.383-1.054c-0.879-0.251-1.75-0.445-2.617-0.587c-0.52-0.085-1.078-0.161-1.677-0.226
		c-0.6-0.066-1.213-0.142-1.84-0.227s-1.257-0.189-1.889-0.311c-0.632-0.123-1.235-0.28-1.811-0.474
		c-0.575-0.193-1.113-0.434-1.612-0.722c-0.5-0.288-0.932-0.638-1.295-1.053s-0.651-0.904-0.863-1.464
		c-0.212-0.562-0.318-1.215-0.318-1.96c0-0.792,0.122-1.507,0.368-2.143c0.245-0.637,0.58-1.207,1.004-1.712
		c0.426-0.505,0.923-0.94,1.493-1.308c0.57-0.368,1.182-0.671,1.832-0.906c0.651-0.235,1.325-0.413,2.023-0.531
		c0.697-0.117,1.386-0.176,2.064-0.176c1.415,0,2.752,0.184,4.012,0.552c1.259,0.367,2.459,0.975,3.6,1.824
		c0.029,0.02,0.102,0.071,0.219,0.155c0.119,0.086,0.241,0.182,0.368,0.291c0.128,0.108,0.241,0.219,0.34,0.332
		c0.1,0.113,0.149,0.213,0.149,0.297c0,0.076-0.027,0.133-0.079,0.17c-0.051,0.038-0.11,0.057-0.176,0.057
		c-0.085,0-0.156-0.019-0.212-0.057c-0.058-0.037-0.114-0.084-0.17-0.141c-0.528-0.519-1.108-0.965-1.74-1.337
		c-0.632-0.373-1.29-0.681-1.975-0.927c-0.684-0.245-1.391-0.427-2.122-0.545c-0.73-0.117-1.459-0.176-2.186-0.176
		c-0.622,0-1.261,0.054-1.916,0.163c-0.656,0.108-1.29,0.27-1.903,0.487c-0.612,0.218-1.19,0.495-1.732,0.836
		c-0.542,0.339-1.018,0.74-1.422,1.202c-0.405,0.462-0.727,0.99-0.962,1.584c-0.236,0.594-0.354,1.254-0.354,1.98
		c0,0.906,0.173,1.668,0.517,2.285c0.345,0.618,0.803,1.132,1.372,1.542c0.571,0.411,1.225,0.732,1.96,0.963
		s1.494,0.415,2.277,0.552c0.783,0.135,1.558,0.242,2.327,0.317c0.769,0.076,1.469,0.161,2.101,0.255
		c0.643,0.094,1.29,0.213,1.945,0.354c0.656,0.141,1.286,0.325,1.889,0.552c0.604,0.225,1.169,0.499,1.697,0.819
		c0.529,0.321,0.986,0.707,1.373,1.16c0.386,0.453,0.693,0.979,0.919,1.578c0.228,0.599,0.34,1.284,0.34,2.058
		c0,0.914-0.148,1.73-0.445,2.448c-0.298,0.716-0.7,1.343-1.209,1.881c-0.511,0.537-1.104,0.992-1.783,1.365
		c-0.68,0.373-1.4,0.671-2.164,0.898c-0.765,0.227-1.547,0.391-2.35,0.495c-0.801,0.104-1.578,0.155-2.334,0.155
		c-0.819,0-1.638-0.062-2.455-0.183c-0.814-0.124-1.611-0.315-2.39-0.574c-0.779-0.26-1.526-0.589-2.243-0.99
		c-0.716-0.4-1.386-0.875-2.009-1.422c-0.245-0.217-0.485-0.44-0.721-0.672C546.567,57.157,546.384,56.89,546.252,56.589"/>
	<circle clip-path="url(#SVGID_2_)" fill="none" stroke="#231F20" stroke-miterlimit="10" cx="623.421" cy="48" r="45.562"/>
</g>
</svg>
