<?xml version="1.0" encoding="utf-8"?>
<!-- Generator: Adobe Illustrator 15.1.0, SVG Export Plug-In . SVG Version: 6.00 Build 0)  -->
<!DOCTYPE svg PUBLIC "-//W3C//DTD SVG 1.1//EN" "http://www.w3.org/Graphics/SVG/1.1/DTD/svg11.dtd">
<svg version="1.1" id="Layer_1" xmlns="http://www.w3.org/2000/svg" xmlns:xlink="http://www.w3.org/1999/xlink" x="0px" y="0px"
	 width="7.605px" height="7.605px" viewBox="0 0 7.605 7.605" enable-background="new 0 0 7.605 7.605" xml:space="preserve">
<circle fill="#2A252B" cx="3.803" cy="3.804" r="3.803"/>
<g>
	<path fill="#FFFFFF" d="M3.826,2.786c0.229,0,0.442,0.074,0.616,0.197H5.28h0.769V2.671c0-0.619-0.504-1.123-1.121-1.123H2.68
		c-0.619,0-1.123,0.504-1.123,1.123v0.312h1.652C3.383,2.86,3.597,2.786,3.826,2.786z M4.746,2.231c0-0.068,0.056-0.124,0.123-0.124
		h0.388c0.067,0,0.123,0.056,0.123,0.124v0.386c0,0.068-0.056,0.125-0.123,0.125H4.869c-0.067,0-0.123-0.057-0.123-0.125V2.231z"/>
	<path fill="#FFFFFF" d="M4.892,3.853c0,0.589-0.478,1.066-1.065,1.066S2.76,4.442,2.76,3.853c0-0.162,0.036-0.316,0.101-0.454
		H1.557v1.538c0,0.617,0.503,1.121,1.123,1.121h2.247c0.617,0,1.121-0.504,1.121-1.121V3.399H4.79
		C4.856,3.537,4.892,3.691,4.892,3.853z"/>
</g>
</svg>
