<?xml version="1.0" encoding="utf-8"?>
<!-- Generator: Adobe Illustrator 16.0.0, SVG Export Plug-In . SVG Version: 6.00 Build 0)  -->
<!DOCTYPE svg PUBLIC "-//W3C//DTD SVG 1.1//EN" "http://www.w3.org/Graphics/SVG/1.1/DTD/svg11.dtd">
<svg version="1.1" xmlns="http://www.w3.org/2000/svg" xmlns:xlink="http://www.w3.org/1999/xlink" x="0px" y="0px" width="300px"
	 height="300px" viewBox="0 0 300 300" enable-background="new 0 0 300 300" xml:space="preserve">
<g id="Layer_1" display="none">
	<g id="Layer_1_1_">
		<g display="inline">
			<path fill="none" stroke="#F06350" stroke-width="23.0828" d="M149.368,20.777c-71.713,0-129.841,58.128-129.841,129.841
				c0,71.713,58.128,129.84,129.841,129.841c71.709,0,129.841-58.127,129.841-129.841C279.209,78.905,221.077,20.777,149.368,20.777
				z"/>
		</g>
		<polygon display="inline" fill="#F06350" points="86.176,140.715 100.647,154.9 139.209,117.151 139.209,223.721 159.531,223.721 
			159.531,117.151 198.098,154.9 212.553,140.715 149.368,77.53 		"/>
	</g>
	<g id="Guides" display="inline">
		<g>
			<path fill="none" stroke="#F06350" stroke-width="23.0828" d="M149.368,20.777c-71.713,0-129.841,58.128-129.841,129.841
				c0,71.713,58.128,129.84,129.841,129.841c71.709,0,129.841-58.127,129.841-129.841C279.209,78.905,221.077,20.777,149.368,20.777
				z"/>
		</g>
	</g>
	<g id="Layer_3" display="inline">
		<g>
			<g>
				<defs>
					<rect id="SVGID_1_" x="8" y="9" width="283" height="283"/>
				</defs>
				<clipPath id="SVGID_2_">
					<use xlink:href="#SVGID_1_"  overflow="visible"/>
				</clipPath>
				<path clip-path="url(#SVGID_2_)" fill="#F06350" d="M162.184,150.677c-3.054,5.175-7.332,9.453-12.515,12.515
					c-5.252,3.095-11.306,5.002-17.854,5.002c-19.542,0-35.378-15.844-35.378-35.377s15.836-35.37,35.378-35.37
					c19.535,0,35.371,15.836,35.371,35.37C167.186,139.363,165.285,145.424,162.184,150.677 M217.661,206.154l-42.634-42.625
					c6.172-8.676,9.847-19.259,9.847-30.714c0-29.309-23.758-53.059-53.059-53.059c-29.309,0-53.067,23.75-53.067,53.059
					s23.758,53.067,53.067,53.067c11.447,0,22.039-3.675,30.707-9.854l42.633,42.625c3.447,3.463,9.045,3.463,12.508,0
					C221.115,215.206,221.115,209.607,217.661,206.154"/>
			</g>
			<g>
				<defs>
					<rect id="SVGID_3_" x="8" y="9" width="283" height="283"/>
				</defs>
				<clipPath id="SVGID_4_">
					<use xlink:href="#SVGID_3_"  overflow="visible"/>
				</clipPath>
				<path display="none" clip-path="url(#SVGID_4_)" fill="#F06350" d="M149.496,269.891c-65.935,0-119.387-53.451-119.387-119.387
					c0-65.943,53.452-119.395,119.387-119.395c65.943,0,119.395,53.452,119.395,119.395
					C268.891,216.439,215.439,269.891,149.496,269.891 M149.496,9C71.344,9,8,72.344,8,150.504C8,228.656,71.344,292,149.496,292
					C227.646,292,291,228.656,291,150.504C291,72.344,227.646,9,149.496,9"/>
			</g>
		</g>
	</g>
</g>
<g id="Layer_2">
	<g>
		<defs>
			<rect id="SVGID_5_" x="8" y="9" width="283" height="283"/>
		</defs>
		<clipPath id="SVGID_6_">
			<use xlink:href="#SVGID_5_"  overflow="visible"/>
		</clipPath>
		<path clip-path="url(#SVGID_6_)" d="M149.5,269.891c-65.94,0-119.391-53.45-119.391-119.391S83.56,31.109,149.5,31.109
			S268.891,84.56,268.891,150.5S215.44,269.891,149.5,269.891 M149.5,9C71.349,9,8,72.349,8,150.5S71.349,292,149.5,292
			S291,228.651,291,150.5S227.651,9,149.5,9"/>
	</g>
	<g>
		<defs>
			<rect id="SVGID_7_" x="8" y="9" width="283" height="283"/>
		</defs>
		<clipPath id="SVGID_8_">
			<use xlink:href="#SVGID_7_"  overflow="visible"/>
		</clipPath>
	</g>
	<g>
		<defs>
			<rect id="SVGID_9_" x="8" y="9" width="283" height="283"/>
		</defs>
		<clipPath id="SVGID_10_">
			<use xlink:href="#SVGID_9_"  overflow="visible"/>
		</clipPath>
	</g>
	<g>
		<defs>
			<rect id="SVGID_11_" x="9.877" y="10.749" width="282.394" height="281.251"/>
		</defs>
		<clipPath id="SVGID_12_">
			<use xlink:href="#SVGID_11_"  overflow="visible"/>
		</clipPath>
		<path clip-path="url(#SVGID_12_)" d="M198.969,230.128c23.853,0,31.205-15.612,31.205-31.937v-96.729
			c0-17.662-16.188-27.963-31.205-27.963H104.33c-23.862,0-31.205,15.602-31.205,31.937v96.729
			c0,17.662,16.198,27.963,31.205,27.963H198.969z"/>
		<path clip-path="url(#SVGID_12_)" fill="#FFFFFF" d="M191.168,153.64c0,21.831-17.682,39.533-39.523,39.533
			c-21.812,0-39.523-17.702-39.523-39.533c0-21.822,17.711-39.514,39.523-39.514C173.486,114.126,191.168,131.818,191.168,153.64"/>
		
			<path clip-path="url(#SVGID_12_)" fill="none" stroke="#FFFFFF" stroke-width="6.7086" stroke-linejoin="round" stroke-miterlimit="10" d="
			M191.168,153.64c0,21.831-17.682,39.533-39.523,39.533c-21.812,0-39.523-17.702-39.523-39.533
			c0-21.822,17.711-39.514,39.523-39.514C173.486,114.126,191.168,131.818,191.168,153.64z"/>
		<rect x="189.254" y="86.466" clip-path="url(#SVGID_12_)" fill="#FFFFFF" width="25.181" height="25.161"/>
		
			<rect x="189.254" y="86.466" clip-path="url(#SVGID_12_)" fill="none" stroke="#FFFFFF" stroke-width="6.7086" stroke-linecap="round" stroke-linejoin="round" stroke-miterlimit="10" width="25.181" height="25.161"/>
		
			<line clip-path="url(#SVGID_12_)" fill="none" stroke="#FFFFFF" stroke-width="6.7086" stroke-linejoin="round" stroke-miterlimit="10" x1="73.125" y1="122.669" x2="230.184" y2="122.669"/>
		<path clip-path="url(#SVGID_12_)" fill="none" stroke="#FFFFFF" stroke-width="6.7086" stroke-miterlimit="10" d="M91.228,73.588
			v25.454 M101.674,71.693v27.348 M112.131,71.693v27.348"/>
		<path clip-path="url(#SVGID_12_)" d="M151.645,128.537c13.864,0,25.112,11.238,25.112,25.112
			c0,13.864-11.248,25.103-25.112,25.103s-25.112-11.238-25.112-25.103C126.533,139.775,137.78,128.537,151.645,128.537"/>
		
			<path clip-path="url(#SVGID_12_)" fill="none" stroke="#000000" stroke-width="6.7086" stroke-linejoin="round" stroke-miterlimit="10" d="
			M151.645,128.537c13.864,0,25.112,11.238,25.112,25.112c0,13.864-11.248,25.103-25.112,25.103s-25.112-11.238-25.112-25.103
			C126.533,139.775,137.78,128.537,151.645,128.537z"/>
	</g>
</g>
<g id="Layer_3_1_">
	<g>
		<defs>
			<rect id="SVGID_13_" x="8" y="9" width="283" height="283"/>
		</defs>
		<clipPath id="SVGID_14_">
			<use xlink:href="#SVGID_13_"  overflow="visible"/>
		</clipPath>
		<path clip-path="url(#SVGID_14_)" d="M149.5,9C71.349,9,8,72.349,8,150.5S71.349,292,149.5,292S291,228.651,291,150.5
			S227.651,9,149.5,9"/>
	</g>
	<g>
		<defs>
			<rect id="SVGID_15_" x="9.877" y="10.749" width="282.394" height="281.251"/>
		</defs>
		<clipPath id="SVGID_16_">
			<use xlink:href="#SVGID_15_"  overflow="visible"/>
		</clipPath>
		<path clip-path="url(#SVGID_16_)" fill="#FFFFFF" d="M198.969,230.128c23.853,0,31.205-15.612,31.205-31.937v-96.729
			c0-17.662-16.188-27.963-31.205-27.963H104.33c-23.862,0-31.205,15.602-31.205,31.937v96.729
			c0,17.662,16.198,27.963,31.205,27.963H198.969z"/>
		<path clip-path="url(#SVGID_16_)" fill="#FFFFFF" stroke="#000000" stroke-miterlimit="10" d="M191.168,153.64
			c0,21.831-17.682,39.533-39.523,39.533c-21.812,0-39.523-17.702-39.523-39.533c0-21.822,17.711-39.514,39.523-39.514
			C173.486,114.126,191.168,131.818,191.168,153.64"/>
		<path clip-path="url(#SVGID_16_)" stroke="#000000" stroke-width="6.7086" stroke-linejoin="round" stroke-miterlimit="10" d="
			M191.168,153.64c0,21.831-17.682,39.533-39.523,39.533c-21.812,0-39.523-17.702-39.523-39.533
			c0-21.822,17.711-39.514,39.523-39.514C173.486,114.126,191.168,131.818,191.168,153.64z"/>
		
			<rect x="189.254" y="86.466" clip-path="url(#SVGID_16_)" stroke="#000000" stroke-miterlimit="10" width="25.181" height="25.161"/>
		
			<rect x="189.254" y="86.466" clip-path="url(#SVGID_16_)" fill="none" stroke="#000000" stroke-width="6.7086" stroke-linecap="round" stroke-linejoin="round" stroke-miterlimit="10" width="25.181" height="25.161"/>
		
			<line clip-path="url(#SVGID_16_)" fill="none" stroke="#000000" stroke-width="6.7086" stroke-linejoin="round" stroke-miterlimit="10" x1="73.125" y1="122.669" x2="230.184" y2="122.669"/>
		<path clip-path="url(#SVGID_16_)" fill="none" stroke="#000000" stroke-width="6.7086" stroke-miterlimit="10" d="M91.228,73.588
			v25.454 M101.674,71.693v27.348 M112.131,71.693v27.348"/>
		<path clip-path="url(#SVGID_16_)" fill="#FFFFFF" d="M151.645,128.537c13.864,0,25.112,11.238,25.112,25.112
			c0,13.864-11.248,25.103-25.112,25.103s-25.112-11.238-25.112-25.103C126.533,139.775,137.78,128.537,151.645,128.537"/>
		
			<path clip-path="url(#SVGID_16_)" fill="none" stroke="#000000" stroke-width="6.7086" stroke-linejoin="round" stroke-miterlimit="10" d="
			M151.645,128.537c13.864,0,25.112,11.238,25.112,25.112c0,13.864-11.248,25.103-25.112,25.103s-25.112-11.238-25.112-25.103
			C126.533,139.775,137.78,128.537,151.645,128.537z"/>
	</g>
</g>
</svg>
